<mxfile host="app.diagrams.net" modified="2023-09-20T03:29:44.436Z" agent="Mozilla/5.0 (Windows NT 10.0; Win64; x64) AppleWebKit/537.36 (KHTML, like Gecko) Chrome/116.0.0.0 Safari/537.36" etag="TWQXTFla7AizRv7nCIoW" version="21.7.5" type="github">
  <diagram name="第 1 页" id="Zjm2JlXs56T9bLfwZ5cv">
    <mxGraphModel dx="1877" dy="542" grid="1" gridSize="10" guides="1" tooltips="1" connect="1" arrows="1" fold="1" page="1" pageScale="1" pageWidth="827" pageHeight="1169" math="0" shadow="0">
      <root>
        <mxCell id="0" />
        <mxCell id="1" parent="0" />
        <mxCell id="8eTx1scZpe6bk8PXPmwQ-2" value="" style="shape=flexArrow;endArrow=classic;html=1;rounded=0;" parent="1" edge="1">
          <mxGeometry width="50" height="50" relative="1" as="geometry">
            <mxPoint x="-120" y="340" as="sourcePoint" />
            <mxPoint x="820" y="340" as="targetPoint" />
          </mxGeometry>
        </mxCell>
        <mxCell id="8eTx1scZpe6bk8PXPmwQ-3" value="09:52.00" style="text;html=1;align=center;verticalAlign=middle;resizable=0;points=[];autosize=1;strokeColor=none;fillColor=none;fontStyle=1" parent="1" vertex="1">
          <mxGeometry x="210" y="300" width="70" height="30" as="geometry" />
        </mxCell>
        <mxCell id="8eTx1scZpe6bk8PXPmwQ-4" value="09:53.00" style="text;html=1;align=center;verticalAlign=middle;resizable=0;points=[];autosize=1;strokeColor=none;fillColor=none;fontStyle=1" parent="1" vertex="1">
          <mxGeometry x="530" y="300" width="70" height="30" as="geometry" />
        </mxCell>
        <mxCell id="8eTx1scZpe6bk8PXPmwQ-5" value="09:52.50" style="text;html=1;align=center;verticalAlign=middle;resizable=0;points=[];autosize=1;strokeColor=none;fillColor=none;fontStyle=1" parent="1" vertex="1">
          <mxGeometry x="379" y="300" width="70" height="30" as="geometry" />
        </mxCell>
        <mxCell id="8eTx1scZpe6bk8PXPmwQ-8" value="" style="strokeWidth=2;html=1;shape=mxgraph.flowchart.annotation_1;align=left;pointerEvents=1;direction=north;" parent="1" vertex="1">
          <mxGeometry x="-25" y="80" width="110" height="30" as="geometry" />
        </mxCell>
        <mxCell id="8eTx1scZpe6bk8PXPmwQ-10" value="09:51.50" style="text;html=1;align=center;verticalAlign=middle;resizable=0;points=[];autosize=1;strokeColor=none;fillColor=none;fontStyle=1" parent="1" vertex="1">
          <mxGeometry x="60" y="300" width="70" height="30" as="geometry" />
        </mxCell>
        <mxCell id="8eTx1scZpe6bk8PXPmwQ-11" value="09:53.50" style="text;html=1;align=center;verticalAlign=middle;resizable=0;points=[];autosize=1;strokeColor=none;fillColor=none;fontStyle=1" parent="1" vertex="1">
          <mxGeometry x="690" y="300" width="70" height="30" as="geometry" />
        </mxCell>
        <mxCell id="8eTx1scZpe6bk8PXPmwQ-12" value="" style="strokeWidth=2;html=1;shape=mxgraph.flowchart.annotation_1;align=left;pointerEvents=1;direction=north;" parent="1" vertex="1">
          <mxGeometry x="50" y="370" width="110" height="30" as="geometry" />
        </mxCell>
        <mxCell id="8eTx1scZpe6bk8PXPmwQ-13" value="09:51.00" style="text;html=1;align=center;verticalAlign=middle;resizable=0;points=[];autosize=1;strokeColor=none;fillColor=none;" parent="1" vertex="1">
          <mxGeometry x="15" y="360" width="70" height="30" as="geometry" />
        </mxCell>
        <mxCell id="8eTx1scZpe6bk8PXPmwQ-15" value="现实时间序列" style="text;html=1;align=center;verticalAlign=middle;resizable=0;points=[];autosize=1;strokeColor=none;fillColor=none;fontStyle=1" parent="1" vertex="1">
          <mxGeometry x="-205" y="270" width="100" height="30" as="geometry" />
        </mxCell>
        <mxCell id="8eTx1scZpe6bk8PXPmwQ-16" value="数据覆盖情况" style="text;html=1;align=center;verticalAlign=middle;resizable=0;points=[];autosize=1;strokeColor=none;fillColor=none;fontStyle=1" parent="1" vertex="1">
          <mxGeometry x="-205" y="380" width="100" height="30" as="geometry" />
        </mxCell>
        <mxCell id="8eTx1scZpe6bk8PXPmwQ-17" style="edgeStyle=orthogonalEdgeStyle;shape=flexArrow;rounded=0;orthogonalLoop=1;jettySize=auto;html=1;exitX=0;exitY=0.5;exitDx=0;exitDy=0;exitPerimeter=0;" parent="1" source="8eTx1scZpe6bk8PXPmwQ-12" target="8eTx1scZpe6bk8PXPmwQ-12" edge="1">
          <mxGeometry relative="1" as="geometry" />
        </mxCell>
        <mxCell id="8eTx1scZpe6bk8PXPmwQ-18" value="09:51.00" style="text;html=1;align=center;verticalAlign=middle;resizable=0;points=[];autosize=1;strokeColor=none;fillColor=none;fontStyle=1" parent="1" vertex="1">
          <mxGeometry x="-90" y="300" width="70" height="30" as="geometry" />
        </mxCell>
        <mxCell id="8eTx1scZpe6bk8PXPmwQ-22" value="09:51.00" style="text;html=1;align=center;verticalAlign=middle;resizable=0;points=[];autosize=1;strokeColor=none;fillColor=none;" parent="1" vertex="1">
          <mxGeometry x="-95" y="360" width="70" height="30" as="geometry" />
        </mxCell>
        <mxCell id="8eTx1scZpe6bk8PXPmwQ-23" value="" style="strokeWidth=2;html=1;shape=mxgraph.flowchart.annotation_1;align=left;pointerEvents=1;direction=north;" parent="1" vertex="1">
          <mxGeometry x="100" y="400" width="110" height="30" as="geometry" />
        </mxCell>
        <mxCell id="8eTx1scZpe6bk8PXPmwQ-24" value="09:52.00" style="text;html=1;align=center;verticalAlign=middle;resizable=0;points=[];autosize=1;strokeColor=none;fillColor=none;" parent="1" vertex="1">
          <mxGeometry x="130" y="360" width="70" height="30" as="geometry" />
        </mxCell>
        <mxCell id="8eTx1scZpe6bk8PXPmwQ-25" value="&lt;b&gt;区间数据 order by updatime，id&lt;br&gt;t1和t2是Timestamp，现实时间的四舍五入&lt;br&gt;id1和id2分别是区间的首尾条数据的id&lt;/b&gt;" style="text;html=1;align=center;verticalAlign=middle;resizable=0;points=[];autosize=1;strokeColor=none;fillColor=none;" parent="1" vertex="1">
          <mxGeometry x="-100" y="138" width="250" height="60" as="geometry" />
        </mxCell>
        <mxCell id="8eTx1scZpe6bk8PXPmwQ-26" value="" style="strokeWidth=2;html=1;shape=mxgraph.flowchart.annotation_1;align=left;pointerEvents=1;direction=north;" parent="1" vertex="1">
          <mxGeometry x="-60" y="370" width="110" height="30" as="geometry" />
        </mxCell>
        <mxCell id="8eTx1scZpe6bk8PXPmwQ-27" value="t1" style="text;html=1;align=center;verticalAlign=middle;resizable=0;points=[];autosize=1;strokeColor=none;fillColor=none;" parent="1" vertex="1">
          <mxGeometry x="-55" y="48" width="30" height="30" as="geometry" />
        </mxCell>
        <mxCell id="8eTx1scZpe6bk8PXPmwQ-28" value="id1" style="text;html=1;align=center;verticalAlign=middle;resizable=0;points=[];autosize=1;strokeColor=none;fillColor=none;" parent="1" vertex="1">
          <mxGeometry x="-60" y="108" width="40" height="30" as="geometry" />
        </mxCell>
        <mxCell id="8eTx1scZpe6bk8PXPmwQ-29" value="t2" style="text;html=1;align=center;verticalAlign=middle;resizable=0;points=[];autosize=1;strokeColor=none;fillColor=none;" parent="1" vertex="1">
          <mxGeometry x="80" y="50" width="30" height="30" as="geometry" />
        </mxCell>
        <mxCell id="8eTx1scZpe6bk8PXPmwQ-30" value="id2" style="text;html=1;align=center;verticalAlign=middle;resizable=0;points=[];autosize=1;strokeColor=none;fillColor=none;" parent="1" vertex="1">
          <mxGeometry x="80" y="110" width="40" height="30" as="geometry" />
        </mxCell>
        <mxCell id="8eTx1scZpe6bk8PXPmwQ-31" value="t1=t2" style="text;html=1;align=center;verticalAlign=middle;resizable=0;points=[];autosize=1;strokeColor=none;fillColor=none;" parent="1" vertex="1">
          <mxGeometry x="-30" y="370" width="50" height="30" as="geometry" />
        </mxCell>
        <mxCell id="8eTx1scZpe6bk8PXPmwQ-32" value="如果t1=t2，下一个区间数据的开始点为：&amp;gt;=t2&amp;nbsp; &amp;gt;id2&lt;br&gt;如果t1&amp;lt;t2，下一个区间数据的开始点为: &amp;gt;=t2 null" style="text;html=1;align=center;verticalAlign=middle;resizable=0;points=[];autosize=1;strokeColor=none;fillColor=none;" parent="1" vertex="1">
          <mxGeometry x="154" y="80" width="300" height="40" as="geometry" />
        </mxCell>
        <mxCell id="8eTx1scZpe6bk8PXPmwQ-34" value="t1&amp;lt;t2" style="text;html=1;align=center;verticalAlign=middle;resizable=0;points=[];autosize=1;strokeColor=none;fillColor=none;" parent="1" vertex="1">
          <mxGeometry x="80" y="370" width="50" height="30" as="geometry" />
        </mxCell>
        <mxCell id="8eTx1scZpe6bk8PXPmwQ-35" value="09:52.00" style="text;html=1;align=center;verticalAlign=middle;resizable=0;points=[];autosize=1;strokeColor=none;fillColor=none;" parent="1" vertex="1">
          <mxGeometry x="65" y="400" width="70" height="30" as="geometry" />
        </mxCell>
        <mxCell id="8eTx1scZpe6bk8PXPmwQ-36" value="t1=t2" style="text;html=1;align=center;verticalAlign=middle;resizable=0;points=[];autosize=1;strokeColor=none;fillColor=none;" parent="1" vertex="1">
          <mxGeometry x="130" y="430" width="50" height="30" as="geometry" />
        </mxCell>
        <mxCell id="8eTx1scZpe6bk8PXPmwQ-37" value="" style="strokeWidth=2;html=1;shape=mxgraph.flowchart.annotation_1;align=left;pointerEvents=1;direction=north;" parent="1" vertex="1">
          <mxGeometry x="210" y="400" width="110" height="30" as="geometry" />
        </mxCell>
        <mxCell id="8eTx1scZpe6bk8PXPmwQ-38" value="09:52.00" style="text;html=1;align=center;verticalAlign=middle;resizable=0;points=[];autosize=1;strokeColor=none;fillColor=none;" parent="1" vertex="1">
          <mxGeometry x="180" y="400" width="70" height="30" as="geometry" />
        </mxCell>
        <mxCell id="8eTx1scZpe6bk8PXPmwQ-41" value="09:52.00" style="text;html=1;align=center;verticalAlign=middle;resizable=0;points=[];autosize=1;strokeColor=none;fillColor=none;" parent="1" vertex="1">
          <mxGeometry x="290" y="400" width="70" height="30" as="geometry" />
        </mxCell>
        <mxCell id="8eTx1scZpe6bk8PXPmwQ-42" value="" style="strokeWidth=2;html=1;shape=mxgraph.flowchart.annotation_1;align=left;pointerEvents=1;direction=north;" parent="1" vertex="1">
          <mxGeometry x="414" y="430" width="110" height="30" as="geometry" />
        </mxCell>
        <mxCell id="8eTx1scZpe6bk8PXPmwQ-43" value="09:53.00" style="text;html=1;align=center;verticalAlign=middle;resizable=0;points=[];autosize=1;strokeColor=none;fillColor=none;" parent="1" vertex="1">
          <mxGeometry x="400" y="400" width="70" height="30" as="geometry" />
        </mxCell>
        <mxCell id="8eTx1scZpe6bk8PXPmwQ-44" value="t1=t2" style="text;html=1;align=center;verticalAlign=middle;resizable=0;points=[];autosize=1;strokeColor=none;fillColor=none;" parent="1" vertex="1">
          <mxGeometry x="240" y="430" width="50" height="30" as="geometry" />
        </mxCell>
        <mxCell id="8eTx1scZpe6bk8PXPmwQ-45" value="t1&amp;lt;t2" style="text;html=1;align=center;verticalAlign=middle;resizable=0;points=[];autosize=1;strokeColor=none;fillColor=none;" parent="1" vertex="1">
          <mxGeometry x="350" y="430" width="50" height="30" as="geometry" />
        </mxCell>
        <mxCell id="8eTx1scZpe6bk8PXPmwQ-46" value="" style="strokeWidth=2;html=1;shape=mxgraph.flowchart.annotation_1;align=left;pointerEvents=1;direction=north;" parent="1" vertex="1">
          <mxGeometry x="320" y="400" width="110" height="30" as="geometry" />
        </mxCell>
        <mxCell id="8eTx1scZpe6bk8PXPmwQ-47" value="09:53.00" style="text;html=1;align=center;verticalAlign=middle;resizable=0;points=[];autosize=1;strokeColor=none;fillColor=none;" parent="1" vertex="1">
          <mxGeometry x="384" y="460" width="70" height="30" as="geometry" />
        </mxCell>
        <mxCell id="8eTx1scZpe6bk8PXPmwQ-48" value="09:53.00" style="text;html=1;align=center;verticalAlign=middle;resizable=0;points=[];autosize=1;strokeColor=none;fillColor=none;" parent="1" vertex="1">
          <mxGeometry x="490" y="460" width="70" height="30" as="geometry" />
        </mxCell>
        <mxCell id="8eTx1scZpe6bk8PXPmwQ-50" value="" style="strokeWidth=2;html=1;shape=mxgraph.flowchart.annotation_1;align=left;pointerEvents=1;direction=north;" parent="1" vertex="1">
          <mxGeometry x="524" y="430" width="110" height="30" as="geometry" />
        </mxCell>
        <mxCell id="8eTx1scZpe6bk8PXPmwQ-51" value="09:53.00" style="text;html=1;align=center;verticalAlign=middle;resizable=0;points=[];autosize=1;strokeColor=none;fillColor=none;" parent="1" vertex="1">
          <mxGeometry x="600" y="460" width="70" height="30" as="geometry" />
        </mxCell>
        <mxCell id="8eTx1scZpe6bk8PXPmwQ-52" value="t1=t2" style="text;html=1;align=center;verticalAlign=middle;resizable=0;points=[];autosize=1;strokeColor=none;fillColor=none;" parent="1" vertex="1">
          <mxGeometry x="444" y="460" width="50" height="30" as="geometry" />
        </mxCell>
        <mxCell id="8eTx1scZpe6bk8PXPmwQ-53" value="t1=t2" style="text;html=1;align=center;verticalAlign=middle;resizable=0;points=[];autosize=1;strokeColor=none;fillColor=none;" parent="1" vertex="1">
          <mxGeometry x="550" y="460" width="50" height="30" as="geometry" />
        </mxCell>
        <mxCell id="8eTx1scZpe6bk8PXPmwQ-54" value="" style="strokeWidth=2;html=1;shape=mxgraph.flowchart.annotation_1;align=left;pointerEvents=1;direction=north;" parent="1" vertex="1">
          <mxGeometry x="634" y="430" width="110" height="30" as="geometry" />
        </mxCell>
        <mxCell id="8eTx1scZpe6bk8PXPmwQ-55" value="t1&amp;lt;t2" style="text;html=1;align=center;verticalAlign=middle;resizable=0;points=[];autosize=1;strokeColor=none;fillColor=none;" parent="1" vertex="1">
          <mxGeometry x="670" y="460" width="50" height="30" as="geometry" />
        </mxCell>
        <mxCell id="8eTx1scZpe6bk8PXPmwQ-56" value="09:54.00" style="text;html=1;align=center;verticalAlign=middle;resizable=0;points=[];autosize=1;strokeColor=none;fillColor=none;" parent="1" vertex="1">
          <mxGeometry x="720" y="460" width="70" height="30" as="geometry" />
        </mxCell>
        <mxCell id="8eTx1scZpe6bk8PXPmwQ-57" value="" style="strokeWidth=2;html=1;shape=mxgraph.flowchart.annotation_1;align=left;pointerEvents=1;direction=north;" parent="1" vertex="1">
          <mxGeometry x="720" y="460" width="110" height="30" as="geometry" />
        </mxCell>
      </root>
    </mxGraphModel>
  </diagram>
</mxfile>
